<svg width="254" height="244" viewBox="0 0 254 244" fill="none" xmlns="http://www.w3.org/2000/svg">
<path d="M223.371 203.047C222.966 202.834 222.596 202.588 222.269 202.294C218.057 198.49 213.866 194.661 209.636 190.876C207.207 188.703 204.721 186.593 202.249 184.469C201.753 184.044 201.203 183.682 200.654 183.193C205.11 177.419 209.089 171.414 212.333 164.946C216.19 157.256 218.982 149.195 220.743 140.76C222.035 134.569 222.647 128.328 222.845 121.915C223.774 121.877 224.568 121.996 225.362 121.998C234.677 122.014 243.992 122.013 253.308 122.016C253.031 126.093 252.762 130.171 252.473 134.247C252.406 135.201 252.308 136.156 252.16 137.1C251.646 140.379 251.066 143.648 250.58 146.931C249.766 152.423 248.245 157.736 246.465 162.97C241.697 176.985 234.53 189.674 225.14 201.112C224.603 201.766 223.999 202.366 223.371 203.047Z" fill="#DF3228"/>
<path d="M253.35 121.899C243.992 122.012 234.677 122.014 225.362 121.997C224.568 121.996 223.773 121.876 222.881 121.797C222.566 118.622 222.413 115.455 222.12 112.301C220.994 100.19 217.651 88.7161 212.065 77.9067C209.144 72.2524 205.778 66.8808 201.685 61.8683C201.893 61.4278 202.101 61.0314 202.403 60.7283C207.843 55.2676 213.277 49.8005 218.756 44.3791C220.077 43.072 221.555 41.9241 223.036 40.6553C225.111 43.0018 227.226 45.3097 229.091 47.8042C240.757 63.4039 248.139 80.8585 251.432 100.04C252.667 107.229 253.304 114.484 253.35 121.899Z" fill="#F68920"/>
<path d="M56.3785 213.839C46.9133 205.683 39.1204 196.144 32.778 185.393C28.5377 178.205 25.1428 170.64 22.5395 162.719C22.2286 161.773 21.7438 161.505 20.7952 161.517C14.2215 161.598 7.64705 161.628 1.07283 161.674C0.867412 161.675 0.661974 161.674 0 161.674C12.5085 147.096 24.7695 132.806 37.1344 118.396C49.4844 132.812 61.7001 147.071 74.1795 161.638C67.2958 161.638 60.8408 161.638 54.1598 161.638C59.573 173.738 67.2069 183.904 76.6688 192.814C73.6123 196.01 70.6153 199.126 67.582 202.206C64.1332 205.708 60.647 209.173 57.1929 212.67C56.864 213.003 56.6473 213.447 56.3785 213.839Z" fill="#34B6CF"/>
<path d="M138.03 0.128906C142.96 0.599189 147.903 0.959136 152.815 1.5654C160.335 2.49336 167.674 4.3062 174.697 7.13337C179.813 9.19314 184.794 11.6076 189.759 14.0198C195.571 16.8431 200.851 20.5486 205.951 24.4776C211.936 29.089 217.669 34.0017 222.581 39.7902C222.754 39.9933 222.888 40.2287 223.001 40.5762C221.555 41.9245 220.077 43.0725 218.756 44.3795C213.277 49.801 207.843 55.268 202.404 60.7288C202.102 61.0318 201.894 61.4283 201.642 61.7812C198.005 57.859 194.661 53.5996 190.65 50.1066C186.395 46.401 181.68 43.1402 176.856 40.1915C168.9 35.3283 160.306 31.8263 151.098 30.0977C146.851 29.3003 142.532 28.8863 138.12 28.1554C137.981 27.1184 137.951 26.2243 137.953 25.3304C137.976 16.9299 138.004 8.52939 138.03 0.128906Z" fill="#FCE12D"/>
<path d="M137.929 0.0860365C138.004 8.52909 137.976 16.9296 137.953 25.3301C137.951 26.224 137.981 27.1181 138.005 28.1354C134.935 28.3367 131.845 28.2832 128.777 28.518C120.386 29.1602 112.282 31.1516 104.441 34.1615C92.7522 38.6486 82.6203 45.5584 73.6574 54.2427C73.4327 54.4603 73.1954 54.6649 72.8723 54.8157C72.4768 54.2722 72.245 53.7182 71.8546 53.3192C71.014 52.46 70.0618 51.7109 69.2081 50.8636C64.1352 45.8285 59.0896 40.7659 53.9993 35.7486C53.3546 35.1132 52.5019 34.6888 51.7456 34.1667C55.9442 30.5164 59.9575 26.6227 64.3759 23.2614C77.7617 13.078 92.7714 6.25043 109.205 2.71202C118.617 0.685424 128.172 -0.311347 137.929 0.0860365Z" fill="#3AA050"/>
<path d="M223.316 203.103C218.979 208.188 214.179 212.805 209.003 217.022C195.088 228.36 179.357 236.09 161.985 240.511C155.421 242.181 148.72 242.969 141.832 243.364C141.544 242.455 141.32 241.672 141.279 240.881C140.975 234.914 140.722 228.944 140.419 222.977C140.312 220.889 140.066 218.807 139.969 216.718C139.93 215.86 139.511 215.655 138.795 215.666C142.282 215.178 145.8 214.855 149.248 214.173C164.846 211.089 178.557 204.122 190.391 193.561C193.976 190.362 197.122 186.671 200.574 183.248C201.203 183.682 201.753 184.044 202.249 184.469C204.721 186.594 207.207 188.703 209.636 190.876C213.866 194.661 218.056 198.49 222.269 202.294C222.596 202.588 222.966 202.834 223.316 203.103Z" fill="#7B3FAF"/>
<path d="M138.671 215.659C139.511 215.654 139.93 215.859 139.969 216.717C140.066 218.806 140.312 220.888 140.419 222.976C140.722 228.943 140.975 234.913 141.279 240.88C141.32 241.672 141.544 242.454 141.704 243.349C136.193 243.427 130.639 243.693 125.132 243.303C114.34 242.538 103.834 240.17 93.6967 236.385C79.9157 231.239 67.4813 223.798 56.4434 213.902C56.6473 213.447 56.864 213.003 57.1929 212.67C60.647 209.173 64.1332 205.708 67.5819 202.206C70.6153 199.126 73.6123 196.009 76.7138 192.889C79.9493 195.368 82.9839 198.026 86.2649 200.335C95.2381 206.647 105.105 211.045 115.8 213.542C123.283 215.288 130.86 216.075 138.671 215.659Z" fill="#1B73BA"/>
<path d="M51.6627 34.1924C52.5019 34.6886 53.3546 35.113 53.9993 35.7484C59.0896 40.7656 64.1352 45.8283 69.2081 50.8633C70.0618 51.7107 71.014 52.4598 71.8546 53.3189C72.245 53.7179 72.4768 54.272 72.7897 54.857C70.7619 57.3659 68.5634 59.6571 66.7247 62.2078C63.7804 66.2921 60.7774 70.3841 58.3488 74.7767C55.7382 79.4983 53.7277 84.5554 51.5315 89.4998C50.9763 90.7497 50.7711 92.1515 50.2774 93.4344C50.1186 93.8473 49.552 94.3869 49.1696 94.3888C39.1953 94.4394 29.2207 94.4275 19.2462 94.4198C19.0331 94.4196 18.8202 94.3423 18.5786 94.2954C19.8898 87.3852 21.9783 80.7572 24.641 74.3137C29.8897 61.6125 37.067 50.1061 46.2422 39.8642C47.9696 37.9359 49.798 36.098 51.6627 34.1924Z" fill="#6BC364"/>
<path d="M166.543 89.5928C167.743 90.7664 169.078 91.8319 170.122 93.1311C176.936 101.614 180.237 111.359 180.275 122.259C179.598 122.207 179.008 122.022 178.418 122.021C163.789 121.993 149.161 121.985 134.579 121.898C134.95 121.401 135.231 120.934 135.606 120.562C145.201 111.023 154.809 101.498 164.404 91.9589C165.157 91.2103 165.832 90.3833 166.543 89.5928Z" fill="#F68920"/>
<path d="M134.533 121.973C149.162 121.984 163.79 121.993 178.418 122.021C179.008 122.022 179.599 122.207 180.254 122.37C180.207 129.265 178.758 135.796 175.774 141.947C173.558 146.514 170.663 150.624 166.852 154.221C166.389 154.057 166.055 153.905 165.818 153.661C164.264 152.062 162.765 150.409 161.185 148.837C156.977 144.65 152.749 140.484 148.507 136.331C143.706 131.63 138.882 126.952 134.054 122.202C134.04 122.14 134.074 122.017 134.151 122.015C134.33 122 134.432 121.986 134.533 121.973Z" fill="#DF3228"/>
<path d="M88.0892 122.005C88.0466 110.594 91.7786 100.591 99.3028 92.0122C100.121 91.0789 101.027 90.2219 102.041 89.3481C102.55 89.9578 102.812 90.648 103.287 91.1251C112.634 100.51 122.008 109.868 131.372 119.237C132.186 120.052 132.964 120.903 133.672 121.809C133.364 121.913 133.145 121.973 132.926 121.973C117.98 121.987 103.035 121.996 88.0892 122.005Z" fill="#3AA050"/>
<path d="M133.76 121.737C132.965 120.903 132.186 120.052 131.372 119.237C122.008 109.868 112.635 100.51 103.287 91.125C102.812 90.6479 102.551 89.9578 102.119 89.3047C107.207 84.0355 113.291 80.3693 120.308 78.2452C124.777 76.8927 129.331 76.1111 134.125 76.2296C134.236 83.1123 134.257 89.8549 134.213 96.5971C134.157 104.986 134.048 113.376 133.911 121.765C133.859 121.765 133.76 121.737 133.76 121.737Z" fill="#6BC364"/>
<path d="M133.672 121.809C133.76 121.737 133.859 121.765 133.934 121.83C134.031 121.936 134.052 121.976 134.074 122.017C134.074 122.017 134.04 122.14 134.026 122.199C134.012 122.258 133.968 122.291 133.892 122.331C123.634 132.531 113.455 142.693 103.262 152.842C102.739 153.363 102.097 153.766 101.511 154.224C96.0227 148.822 92.1781 142.421 89.9904 135.047C88.7542 130.881 88.077 126.612 88.0737 122.129C103.035 121.996 117.981 121.987 132.926 121.973C133.145 121.973 133.364 121.913 133.672 121.809Z" fill="#34B6CF"/>
<path d="M134.04 122.261C138.882 126.952 143.706 131.63 148.507 136.331C152.749 140.483 156.977 144.65 161.185 148.836C162.765 150.408 164.264 152.061 165.818 153.66C166.055 153.905 166.389 154.056 166.78 154.267C157.268 163.623 145.815 168.253 132.379 167.712C132.961 167.661 133.526 167.661 133.968 167.661C133.968 152.417 133.968 137.354 133.968 122.291C133.968 122.291 134.012 122.258 134.04 122.261Z" fill="#7B3FAF"/>
<path d="M134.151 122.015C134.052 121.977 134.031 121.936 133.986 121.83C134.048 113.376 134.157 104.987 134.212 96.5972C134.257 89.8551 134.235 83.1125 134.247 76.2472C140.518 75.9483 146.475 77.3827 152.235 79.7035C157.258 81.7274 161.703 84.6841 165.618 88.4275C165.938 88.7333 166.199 89.1009 166.515 89.5161C165.832 90.383 165.157 91.21 164.404 91.9586C154.809 101.497 145.201 111.023 135.606 120.562C135.231 120.934 134.95 121.4 134.579 121.898C134.431 121.986 134.33 122 134.151 122.015Z" fill="#FCE12D"/>
<path d="M133.891 122.332C133.967 137.355 133.967 152.418 133.967 167.661C133.526 167.661 132.96 167.661 132.282 167.673C120.743 167.274 110.966 162.929 102.574 155.279C102.244 154.978 101.905 154.689 101.54 154.31C102.097 153.766 102.738 153.364 103.262 152.842C113.455 142.694 123.633 132.531 133.891 122.332Z" fill="#1B73BA"/>
</svg>
